# xmcd
#
# Track frame offsets:
#	150
#	15706
#	29594
#	44462
#	60259
#	79883
#	94686
#	113192
#	129109
#	147104
#	161006
#	178305
#	224445
#	241295
#
# Disc length: 3433 seconds
#
# Revision: 0
# Processed by: cddbd v1.5.2PL0 Copyright (c) Steve Scherf et al.
# Submitted via: audiograbber 1.83.01
#
DISCID=bd0d670e
DTITLE=Eva a Vasek - To byval raj 3
DYEAR=2005
DGENRE=Folk
TTITLE0=Plaze a slunce preji
TTITLE1=Obycejnou nahodou
TTITLE2=Skalinada
TTITLE3=Pulnocni serenada
TTITLE4=Ocun
TTITLE5=Pulnocni valcik
TTITLE6=Za rekou
TTITLE7=A vitar puse
TTITLE8=Klice
TTITLE9=Kus stesti mit
TTITLE10=Prstynek a slovo lasky
TTITLE11=Mariana - smes pisni
TTITLE12=Touzim
TTITLE13=Odvest cu te prid oltar
EXTD=
EXTT0=
EXTT1=
EXTT2=
EXTT3=
EXTT4=
EXTT5=
EXTT6=
EXTT7=
EXTT8=
EXTT9=
EXTT10=
EXTT11=
EXTT12=
EXTT13=
PLAYORDER=
